<svg width="16" height="16" viewBox="0 0 16 16" fill="none" xmlns="http://www.w3.org/2000/svg">
<path d="M15.7461 7.22101L14.8075 6.32264L9.17588 11.5534C8.83116 11.8736 8.29189 11.854 7.97132 11.51C7.65067 11.1659 7.67019 10.6275 8.01492 10.3073L13.575 5.1431L13.5648 5.13331L14.5577 4.21111C14.9023 3.89097 14.9218 3.35247 14.6012 3.00842C14.2806 2.66431 13.7414 2.64482 13.3967 2.96496L12.3322 3.95362L8.34619 0.138845C8.15284 -0.0462817 7.84753 -0.0462817 7.65419 0.138845L0.246748 7.22915C0.0900528 7.3856 0 7.60127 0 7.82157C0 8.28025 0.374048 8.65364 0.833437 8.65364H2.00008V9.82601L0.768814 10.9693C0.424161 11.2894 0.404639 11.8278 0.725284 12.1719C1.04585 12.516 1.5852 12.5355 1.92978 12.2154L5.41611 8.97729C5.75852 8.74168 6.23122 8.78597 6.52284 9.09909C6.84341 9.44321 6.82397 9.98164 6.47924 10.3017L1.99978 14.4624V14.4779C1.99978 15.3039 2.67256 15.9756 3.49979 15.9756H12.4999C13.3274 15.9756 14 15.3039 14 14.4779V8.65349H15.1668C15.6262 8.65349 16 8.2801 16 7.82143C16 7.6012 15.9101 7.38553 15.7461 7.22101Z" fill="url(#paint0_linear_242_4)"/>
<defs>
<linearGradient id="paint0_linear_242_4" x1="3.98293" y1="2.6212" x2="13.2322" y2="16.2524" gradientUnits="userSpaceOnUse">
<stop stop-color="#92FE9D"/>
<stop offset="1" stop-color="#00C9FF"/>
</linearGradient>
</defs>
</svg>
